<svg id="Layer_1" data-name="Layer 1" xmlns="http://www.w3.org/2000/svg" viewBox="0 0 180 180"><title>legend</title><path d="M77,11.1A46.5,46.5,0,1,1,30.4,57.6,46.54,46.54,0,0,1,77,11.1m0-1.5a48,48,0,1,0,48,48,48,48,0,0,0-48-48Z" fill="#aaa"/><path d="M142.9,77a13.6,13.6,0,1,1-13.6,13.6A13.61,13.61,0,0,1,142.9,77m0-1.5A15.1,15.1,0,1,0,158,90.6a15.15,15.15,0,0,0-15.1-15.1Z" fill="#aaa"/><path d="M42.9,144.1a9.12,9.12,0,0,1-4.9,1.2c-4.7,0-8.7-2.8-8.7-8.7s3.9-9.1,8.7-9.1a9.52,9.52,0,0,1,4.7.9l-1.1,3.5a7.35,7.35,0,0,0-3-.7c-2.9,0-4.8,1.9-4.8,5.4s2,5.1,4.6,5.1a5.9,5.9,0,0,0,3.3-.9Z" fill="#aaa"/><path d="M52,143.7a3.88,3.88,0,0,1-3.4,1.8c-2.7,0-4.1-1.9-4.1-4.5v-8.3h4.1v7.9c0,1.2.5,1.6,1.5,1.6a2,2,0,0,0,1.7-.9v-8.6H56V145H52v-1.3Z" fill="#aaa"/><path d="M58.5,145V132.6h4.2V134a3.88,3.88,0,0,1,3.4-1.8,3.17,3.17,0,0,1,3.3,2.1,4.29,4.29,0,0,1,3.7-2.1c2.8,0,4,2,4,4.6V145H73v-7.7c0-1.2-.5-1.7-1.5-1.7a1.8,1.8,0,0,0-1.6.9v8.6H65.7v-7.7c0-1.2-.5-1.7-1.5-1.7a1.76,1.76,0,0,0-1.5.8v8.7l-4.2-.2Z" fill="#aaa"/><path d="M86.7,143.7a3.88,3.88,0,0,1-3.4,1.8c-2.7,0-4.1-1.9-4.1-4.5v-8.3h4.1v7.9c0,1.2.5,1.6,1.5,1.6a2,2,0,0,0,1.7-.9v-8.6h4.2V145H86.5l.2-1.3Z" fill="#aaa"/><path d="M93.4,127.1h4.2V145H93.4Z" fill="#aaa"/><path d="M105.9,144a3.42,3.42,0,0,1-2.8,1.3c-2.9,0-3.8-2.2-3.8-4a3.89,3.89,0,0,1,4.2-4,4.27,4.27,0,0,1,2.4.7v-.6c0-1.6-1.1-2-2.4-2a6.44,6.44,0,0,0-2.8.7l-.8-2.9a10,10,0,0,1,4.5-1c4.1,0,5.6,2,5.6,5.1V145h-4.2l.1-1Zm0-1.8v-2.1a2,2,0,0,0-1.3-.4,1.5,1.5,0,0,0,0,3A2.54,2.54,0,0,0,105.9,142.2Z" fill="#aaa"/><path d="M112.8,140.8v-5.3h-1.3v-2.9h1.3v-3.9H117v3.9h2.3v2.9H117v5c0,1.2.7,1.5,1.4,1.5a2.39,2.39,0,0,0,.9-.2v3.1a6.57,6.57,0,0,1-1.9.2C114.6,145.2,112.8,143.8,112.8,140.8Z" fill="#aaa"/><path d="M123.2,127.2a2.1,2.1,0,0,1,2.2,2.2,2.2,2.2,0,1,1-2.2-2.2Zm-2.1,5.4h4.2V145h-4.2Z" fill="#aaa"/><path d="M126.6,132.6h4.2l2.4,6.6,2.4-6.6h3.7l-4.8,12.5h-3.1Z" fill="#aaa"/><path d="M146.4,145.3c-3.8,0-7-1.8-7-6.6a6,6,0,0,1,6.2-6.4c3.2,0,5.5,2,5.5,5.9v1.7h-7.4c.3,1.5,1.3,2.2,3.3,2.2a7.45,7.45,0,0,0,3.1-.7l.6,3A11.08,11.08,0,0,1,146.4,145.3Zm-2.8-8h3.6c0-1.4-.6-2.1-1.7-2.1S143.8,136,143.6,137.3Z" fill="#aaa"/><path d="M3.2,172.6V160.2H7.4v1.4a4.39,4.39,0,0,1,3.6-1.8c2.9,0,4,2,4,4.6v8.2H10.8v-7.8c0-1.2-.5-1.7-1.5-1.7a2.16,2.16,0,0,0-1.9,1.2v8.3Z" fill="#aaa"/><path d="M24.6,171.3a3.88,3.88,0,0,1-3.4,1.8c-2.7,0-4.1-1.9-4.1-4.5v-8.3h4.1v7.9c0,1.2.5,1.6,1.5,1.6a2,2,0,0,0,1.7-.9v-8.6h4.2v12.4H24.4l.2-1.4Z" fill="#aaa"/><path d="M31.1,172.6V160.2h4.2v1.4a3.88,3.88,0,0,1,3.4-1.8,3.17,3.17,0,0,1,3.3,2.1,4.29,4.29,0,0,1,3.7-2.1c2.8,0,4,2,4,4.6v8.2H45.5v-7.7c0-1.2-.5-1.7-1.5-1.7a1.8,1.8,0,0,0-1.6.9v8.6H38.2V165c0-1.2-.5-1.7-1.5-1.7a1.76,1.76,0,0,0-1.5.8v8.7l-4.1-.2Z" fill="#aaa"/><path d="M56.2,171.3v1.3H52V154.7h4.2v6.7a4.27,4.27,0,0,1,3.4-1.6c3,0,5.2,2,5.2,6.5,0,4.2-2.4,6.6-5.3,6.6A3.81,3.81,0,0,1,56.2,171.3Zm4.4-5c0-2.5-1.3-3.2-2.4-3.2a2.54,2.54,0,0,0-2.1.9v4.9a2.78,2.78,0,0,0,2.1.8C59.3,169.7,60.6,168.8,60.6,166.3Z" fill="#aaa"/><path d="M72.9,172.9c-3.8,0-7-1.8-7-6.6a6,6,0,0,1,6.2-6.4c3.2,0,5.5,2,5.5,5.9v1.7H70.2c.3,1.5,1.3,2.2,3.3,2.2a8.33,8.33,0,0,0,3.2-.7l.6,3A12.11,12.11,0,0,1,72.9,172.9Zm-2.8-8h3.6c0-1.4-.6-2.1-1.7-2.1S70.3,163.6,70.1,164.9Z" fill="#aaa"/><path d="M79.3,172.6V160.2h4.2v2.3a5.26,5.26,0,0,1,4.1-2.5v4.1c-1.1-.1-3.3,0-4.1,1v7.5Z" fill="#aaa"/><path d="M99.9,173a6.24,6.24,0,0,1-6.5-6.5,6.5,6.5,0,1,1,13,0A6.19,6.19,0,0,1,99.9,173Zm0-3.3c1.2,0,2.3-.8,2.3-3.3s-1.1-3.4-2.3-3.4-2.2.9-2.3,3.4S98.8,169.7,99.9,169.7Z" fill="#aaa"/><path d="M108.4,163.2h-1.3v-2.9h1.3v-.6c0-3.4,1.9-5,4.8-5,.9,0,1.4.1,1.7.1v3.1a2.77,2.77,0,0,0-.9-.1c-.9,0-1.4.5-1.4,1.8v.7H115v2.9h-2.4v9.5h-4.2v-9.5Z" fill="#aaa"/><path d="M131.1,172.1a8.41,8.41,0,0,1-3.7.8c-3.5,0-6.6-2.1-6.6-6.4s3.2-6.5,6.8-6.5a10.52,10.52,0,0,1,3.5.6l-1,3.2a5.49,5.49,0,0,0-2.2-.5,2.84,2.84,0,0,0-2.9,3.1,2.79,2.79,0,0,0,2.9,3.1,7.19,7.19,0,0,0,2.4-.5Z" fill="#aaa"/><path d="M138.8,171.6a3.42,3.42,0,0,1-2.8,1.3c-2.9,0-3.8-2.2-3.8-4a3.89,3.89,0,0,1,4.2-4,4.27,4.27,0,0,1,2.4.7V165c0-1.6-1.1-2-2.4-2a6.44,6.44,0,0,0-2.8.7l-.8-2.9a10,10,0,0,1,4.5-1c4.1,0,5.6,2,5.6,5.1v7.7h-4.2l.1-1Zm0-1.8v-2.1a2,2,0,0,0-1.3-.4,1.5,1.5,0,0,0,0,3A3,3,0,0,0,138.8,169.8Z" fill="#aaa"/><path d="M149.9,162.9c-.9,0-1.5.2-1.5.8,0,.9,2,.8,3.8,1.6a3.19,3.19,0,0,1,1.9,3.3c0,2.8-2.1,4.3-5.2,4.3a8.77,8.77,0,0,1-4.4-.9l.8-2.9a7.54,7.54,0,0,0,3.2.8c1.2,0,1.7-.4,1.7-.9,0-1-2.6-.7-4.2-2a3.43,3.43,0,0,1-1.2-2.9c0-2.8,2-4.1,4.9-4.1a9.45,9.45,0,0,1,4.1.8l-.8,2.8A8.35,8.35,0,0,0,149.9,162.9Z" fill="#aaa"/><path d="M162.2,172.9c-3.8,0-7-1.8-7-6.6a6,6,0,0,1,6.2-6.4c3.2,0,5.5,2,5.5,5.9v1.7h-7.4c.3,1.5,1.3,2.2,3.3,2.2a7.45,7.45,0,0,0,3.1-.7l.6,3A10.65,10.65,0,0,1,162.2,172.9Zm-2.7-8h3.6c0-1.4-.6-2.1-1.7-2.1S159.7,163.6,159.5,164.9Z" fill="#aaa"/><path d="M173.3,162.9c-.9,0-1.5.2-1.5.8,0,.9,2,.8,3.8,1.6a3.19,3.19,0,0,1,1.9,3.3c0,2.8-2.1,4.3-5.2,4.3a8.77,8.77,0,0,1-4.4-.9l.8-2.9a7.54,7.54,0,0,0,3.2.8c1.2,0,1.7-.4,1.7-.9,0-1-2.6-.7-4.2-2a3.43,3.43,0,0,1-1.2-2.9c0-2.8,2-4.1,4.9-4.1a9.45,9.45,0,0,1,4.1.8l-.8,2.8A7.89,7.89,0,0,0,173.3,162.9Z" fill="#aaa"/></svg>