<?xml version="1.0" encoding="utf-8"?>
<!-- Generator: Adobe Illustrator 16.0.4, SVG Export Plug-In . SVG Version: 6.00 Build 0)  -->
<!DOCTYPE svg PUBLIC "-//W3C//DTD SVG 1.1//EN" "http://www.w3.org/Graphics/SVG/1.1/DTD/svg11.dtd">
<svg version="1.1" id="Layer_1" xmlns="http://www.w3.org/2000/svg" xmlns:xlink="http://www.w3.org/1999/xlink" x="0px" y="0px"
	 width="179.991px" height="169.491px" viewBox="0 0 179.991 169.491" enable-background="new 0 0 179.991 169.491"
	 xml:space="preserve">
<g>
	<g>
		<path fill="#AAAAAA" d="M76.956,5.833c25.659,0,46.534,20.876,46.534,46.535c0,25.658-20.875,46.533-46.534,46.533
			S30.422,78.026,30.422,52.368C30.422,26.709,51.297,5.833,76.956,5.833 M76.956,4.333c-26.533,0-48.034,21.504-48.034,48.035
			c0,26.529,21.501,48.033,48.034,48.033c26.528,0,48.034-21.504,48.034-48.033C124.99,25.837,103.484,4.333,76.956,4.333
			L76.956,4.333z"/>
	</g>
	<g>
		<path fill="#AAAAAA" d="M142.933,71.71c7.494,0,13.59,6.099,13.59,13.596s-6.096,13.596-13.59,13.596
			c-7.5,0-13.603-6.099-13.603-13.596S135.433,71.71,142.933,71.71 M142.933,70.21c-8.343,0-15.103,6.758-15.103,15.096
			s6.76,15.096,15.103,15.096c8.333,0,15.09-6.758,15.09-15.096S151.266,70.21,142.933,70.21L142.933,70.21z"/>
	</g>
	<g>
		<g>
			<path fill="#AAAAAA" d="M42.896,138.862c-1.242,0.828-3.012,1.195-4.852,1.195c-4.714,0-8.715-2.828-8.715-8.691
				c0-5.887,3.909-9.061,8.738-9.061c2.161,0,3.633,0.346,4.668,0.852l-1.081,3.494c-0.759-0.438-2-0.713-2.966-0.713
				c-2.943,0-4.829,1.932-4.829,5.381c0,3.473,2.001,5.105,4.576,5.105c1.38,0,2.552-0.414,3.334-0.875L42.896,138.862z"/>
			<path fill="#AAAAAA" d="M51.959,138.401c-0.69,0.967-1.679,1.771-3.357,1.771c-2.736,0-4.07-1.908-4.07-4.461v-8.324h4.139v7.863
				c0,1.174,0.46,1.633,1.541,1.633c0.689,0,1.311-0.322,1.748-0.896v-8.6h4.162v12.395h-4.162V138.401z"/>
			<path fill="#AAAAAA" d="M58.515,139.782v-12.395h4.162v1.402c0.69-0.988,1.702-1.793,3.403-1.793
				c1.586,0,2.736,0.643,3.311,2.115c0.736-1.127,1.863-2.115,3.748-2.115c2.76,0,3.979,2.023,3.979,4.576v8.209h-4.162v-7.727
				c0-1.174-0.46-1.748-1.495-1.748c-0.667,0-1.173,0.299-1.564,0.852v8.623h-4.162v-7.727c0-1.174-0.483-1.748-1.518-1.748
				c-0.644,0-1.15,0.275-1.541,0.76v8.715H58.515z"/>
			<path fill="#AAAAAA" d="M86.711,138.401c-0.69,0.967-1.679,1.771-3.357,1.771c-2.736,0-4.07-1.908-4.07-4.461v-8.324h4.139v7.863
				c0,1.174,0.46,1.633,1.541,1.633c0.689,0,1.311-0.322,1.748-0.896v-8.6h4.162v12.395h-4.162V138.401z"/>
			<path fill="#AAAAAA" d="M93.36,121.868h4.162v17.914H93.36V121.868z"/>
			<path fill="#AAAAAA" d="M105.939,138.747c-0.621,0.736-1.449,1.311-2.805,1.311c-2.875,0-3.794-2.23-3.794-3.955
				c0-2.23,1.495-4.002,4.208-4.002c1.035,0,1.817,0.277,2.392,0.713v-0.551c0-1.633-1.104-2.023-2.415-2.023
				c-0.966,0-2.046,0.299-2.759,0.666l-0.828-2.943c1.265-0.621,2.621-0.965,4.53-0.965c4.139,0,5.634,1.953,5.634,5.059v7.727
				h-4.162V138.747z M105.939,136.976v-2.115c-0.391-0.252-0.828-0.414-1.311-0.414c-0.782,0-1.38,0.484-1.38,1.473
				s0.598,1.471,1.38,1.471C105.135,137.39,105.572,137.229,105.939,136.976z"/>
			<path fill="#AAAAAA" d="M112.794,135.573v-5.266h-1.311v-2.92h1.311v-3.887h4.162v3.887h2.346v2.92h-2.346v4.99
				c0,1.172,0.69,1.494,1.403,1.494c0.368,0,0.644-0.068,0.943-0.16v3.104c-0.414,0.092-0.759,0.207-1.886,0.207
				C114.588,139.942,112.794,138.587,112.794,135.573z"/>
			<path fill="#AAAAAA" d="M123.213,121.938c1.265,0,2.23,0.896,2.23,2.184s-0.965,2.207-2.23,2.207c-1.242,0-2.23-0.92-2.23-2.207
				S121.971,121.938,123.213,121.938z M121.121,127.388h4.162v12.395h-4.162V127.388z"/>
			<path fill="#AAAAAA" d="M126.571,127.388h4.231l2.391,6.6l2.392-6.6h3.725l-4.806,12.531h-3.15L126.571,127.388z"/>
			<path fill="#AAAAAA" d="M146.373,140.011c-3.84,0-6.991-1.838-6.991-6.576c0-4.115,2.875-6.438,6.209-6.438
				c3.196,0,5.496,1.953,5.496,5.863v1.748h-7.427c0.299,1.471,1.288,2.16,3.311,2.16c1.196,0,2.185-0.344,3.15-0.734l0.621,2.965
				C149.822,139.575,148.167,140.011,146.373,140.011z M143.637,132.056h3.564c-0.046-1.357-0.552-2.115-1.656-2.115
				C144.35,129.94,143.82,130.79,143.637,132.056z"/>
			<path fill="#AAAAAA" d="M3.213,167.382v-12.395h4.162v1.402c0.782-0.988,1.932-1.793,3.633-1.793c2.92,0,3.978,2,3.978,4.553
				v8.232h-4.162v-7.75c0-1.172-0.46-1.725-1.541-1.725c-0.828,0-1.449,0.438-1.909,1.195v8.279H3.213z"/>
			<path fill="#AAAAAA" d="M24.556,166.001c-0.69,0.967-1.679,1.771-3.357,1.771c-2.736,0-4.07-1.908-4.07-4.461v-8.324h4.139v7.863
				c0,1.174,0.46,1.633,1.541,1.633c0.689,0,1.311-0.322,1.748-0.896v-8.6h4.162v12.395h-4.162V166.001z"/>
			<path fill="#AAAAAA" d="M31.112,167.382v-12.395h4.162v1.402c0.69-0.988,1.702-1.793,3.403-1.793
				c1.586,0,2.736,0.643,3.311,2.115c0.736-1.127,1.863-2.115,3.748-2.115c2.76,0,3.979,2.023,3.979,4.576v8.209h-4.162v-7.727
				c0-1.174-0.46-1.748-1.495-1.748c-0.667,0-1.173,0.299-1.564,0.852v8.623h-4.162v-7.727c0-1.174-0.483-1.748-1.518-1.748
				c-0.644,0-1.15,0.275-1.541,0.76v8.715H31.112z"/>
			<path fill="#AAAAAA" d="M56.158,166.071v1.311h-4.162v-17.914h4.162v6.691c0.736-0.85,1.932-1.562,3.403-1.562
				c3.035,0,5.243,2.047,5.243,6.461c0,4.186-2.392,6.623-5.312,6.623C57.951,167.681,56.848,167.013,56.158,166.071z
				 M60.596,161.058c0-2.461-1.288-3.195-2.369-3.195c-0.782,0-1.541,0.229-2.069,0.85v4.898c0.552,0.574,1.265,0.805,2.069,0.805
				C59.308,164.415,60.596,163.519,60.596,161.058z"/>
			<path fill="#AAAAAA" d="M72.878,167.61c-3.84,0-6.991-1.838-6.991-6.576c0-4.115,2.875-6.438,6.209-6.438
				c3.196,0,5.496,1.953,5.496,5.863v1.748h-7.427c0.299,1.471,1.288,2.16,3.311,2.16c1.196,0,2.185-0.344,3.15-0.734l0.621,2.965
				C76.327,167.175,74.671,167.61,72.878,167.61z M70.142,159.655h3.564c-0.046-1.357-0.552-2.115-1.656-2.115
				C70.854,157.54,70.325,158.39,70.142,159.655z"/>
			<path fill="#AAAAAA" d="M79.342,167.382v-12.395h4.162v2.322c0.759-1.242,2.276-2.461,4.07-2.506v4.115
				c-1.058-0.115-3.265,0-4.07,1.012v7.451H79.342z"/>
			<path fill="#AAAAAA" d="M99.902,167.726c-3.426,0-6.462-2.252-6.462-6.461s3.036-6.668,6.462-6.668
				c3.449,0,6.484,2.459,6.484,6.668S103.352,167.726,99.902,167.726z M99.902,164.483c1.172,0,2.276-0.805,2.276-3.266
				c0-2.438-1.104-3.379-2.276-3.379c-1.127,0-2.23,0.941-2.254,3.379C97.625,163.679,98.775,164.483,99.902,164.483z"/>
			<path fill="#AAAAAA" d="M108.414,157.907h-1.265v-2.92h1.265v-0.621c0-3.381,1.885-4.99,4.806-4.99
				c0.897,0,1.403,0.068,1.725,0.139v3.104c-0.345-0.068-0.644-0.092-0.92-0.092c-0.874,0-1.448,0.506-1.448,1.771v0.689h2.368v2.92
				h-2.368v9.475h-4.162V157.907z"/>
			<path fill="#AAAAAA" d="M131.135,166.829c-0.966,0.529-2.3,0.781-3.702,0.781c-3.519,0-6.646-2.092-6.646-6.369
				c0-4.254,3.196-6.529,6.806-6.529c1.518,0,2.645,0.252,3.519,0.643l-1.035,3.221c-0.437-0.23-1.265-0.484-2.23-0.484
				c-1.632,0-2.851,1.059-2.851,3.105c0,1.977,1.172,3.059,2.851,3.059c0.897,0,1.863-0.254,2.369-0.506L131.135,166.829z"/>
			<path fill="#AAAAAA" d="M138.794,166.347c-0.621,0.736-1.449,1.311-2.805,1.311c-2.875,0-3.794-2.23-3.794-3.955
				c0-2.23,1.495-4.002,4.208-4.002c1.035,0,1.817,0.277,2.392,0.713v-0.551c0-1.633-1.104-2.023-2.415-2.023
				c-0.966,0-2.046,0.299-2.759,0.666l-0.828-2.943c1.265-0.621,2.621-0.965,4.53-0.965c4.139,0,5.634,1.953,5.634,5.059v7.727
				h-4.162V166.347z M138.794,164.575v-2.115c-0.391-0.252-0.828-0.414-1.311-0.414c-0.782,0-1.38,0.484-1.38,1.473
				s0.598,1.471,1.38,1.471C137.989,164.989,138.426,164.829,138.794,164.575z"/>
			<path fill="#AAAAAA" d="M149.88,157.632c-0.851,0-1.518,0.184-1.518,0.805c0,0.896,2.046,0.781,3.771,1.633
				c1.265,0.621,1.932,1.609,1.932,3.334c0,2.805-2.093,4.277-5.197,4.277c-2.185,0-3.472-0.414-4.369-0.92l0.828-2.898
				c0.874,0.414,1.863,0.805,3.173,0.805c1.196,0,1.702-0.367,1.702-0.896c0-0.965-2.645-0.734-4.231-2
				c-0.782-0.621-1.242-1.586-1.242-2.92c0-2.76,1.978-4.117,4.921-4.117c1.932,0,3.311,0.393,4.116,0.783l-0.782,2.828
				C152.387,158.022,151.03,157.632,149.88,157.632z"/>
			<path fill="#AAAAAA" d="M162.208,167.61c-3.84,0-6.991-1.838-6.991-6.576c0-4.115,2.875-6.438,6.209-6.438
				c3.196,0,5.496,1.953,5.496,5.863v1.748h-7.427c0.299,1.471,1.288,2.16,3.311,2.16c1.196,0,2.185-0.344,3.15-0.734l0.621,2.965
				C165.657,167.175,164.001,167.61,162.208,167.61z M159.471,159.655h3.564c-0.046-1.357-0.552-2.115-1.656-2.115
				C160.184,157.54,159.655,158.39,159.471,159.655z"/>
			<path fill="#AAAAAA" d="M173.316,157.632c-0.851,0-1.518,0.184-1.518,0.805c0,0.896,2.046,0.781,3.771,1.633
				c1.265,0.621,1.932,1.609,1.932,3.334c0,2.805-2.093,4.277-5.197,4.277c-2.185,0-3.472-0.414-4.369-0.92l0.828-2.898
				c0.874,0.414,1.863,0.805,3.173,0.805c1.196,0,1.702-0.367,1.702-0.896c0-0.965-2.645-0.734-4.231-2
				c-0.782-0.621-1.242-1.586-1.242-2.92c0-2.76,1.978-4.117,4.921-4.117c1.932,0,3.311,0.393,4.116,0.783l-0.782,2.828
				C175.823,158.022,174.466,157.632,173.316,157.632z"/>
		</g>
	</g>
</g>
</svg>
