<?xml version="1.0" encoding="utf-8"?>
<!-- Generator: Adobe Illustrator 16.0.4, SVG Export Plug-In . SVG Version: 6.00 Build 0)  -->
<!DOCTYPE svg PUBLIC "-//W3C//DTD SVG 1.1//EN" "http://www.w3.org/Graphics/SVG/1.1/DTD/svg11.dtd">
<svg version="1.1" id="Layer_1" xmlns="http://www.w3.org/2000/svg" xmlns:xlink="http://www.w3.org/1999/xlink" x="0px" y="0px"
	 width="158.992px" height="170.992px" viewBox="0 0 158.992 170.992" enable-background="new 0 0 158.992 170.992"
	 xml:space="preserve">
<g>
	<path fill="#AAAAAA" d="M23.537,98.056c-1.104,0-2.001,0.346-2.001,1.334c0,1.08,1.909,1.471,3.61,2.207
		c1.886,0.828,3.817,2.162,3.817,5.037c0,3.586-2.438,5.656-6.393,5.656c-2.713,0-4.231-0.621-5.473-1.494l1.173-3.496
		c1.15,0.758,2.299,1.357,4.185,1.357c1.656,0,2.415-0.529,2.415-1.426c0-1.426-1.518-1.703-3.334-2.484
		c-1.701-0.736-3.955-2.047-3.955-4.943c0-3.219,2.139-5.312,6.048-5.312c2.276,0,3.794,0.576,4.852,1.195l-1.058,3.404
		C26.618,98.585,25.078,98.056,23.537,98.056z"/>
	<path fill="#AAAAAA" d="M37.337,112.22c-3.84,0-6.991-1.838-6.991-6.576c0-4.115,2.875-6.438,6.209-6.438
		c3.196,0,5.496,1.953,5.496,5.863v1.748h-7.427c0.299,1.471,1.288,2.16,3.311,2.16c1.196,0,2.185-0.344,3.15-0.734l0.621,2.965
		C40.786,111.785,39.13,112.22,37.337,112.22z M34.601,104.265h3.564c-0.046-1.357-0.552-2.115-1.656-2.115
		C35.313,102.15,34.784,103,34.601,104.265z"/>
	<path fill="#AAAAAA" d="M43.893,94.078h4.162v17.914h-4.162V94.078z"/>
	<path fill="#AAAAAA" d="M56.863,112.22c-3.84,0-6.991-1.838-6.991-6.576c0-4.115,2.875-6.438,6.209-6.438
		c3.196,0,5.496,1.953,5.496,5.863v1.748H54.15c0.299,1.471,1.288,2.16,3.311,2.16c1.196,0,2.185-0.344,3.15-0.734l0.621,2.965
		C60.312,111.785,58.657,112.22,56.863,112.22z M54.127,104.265h3.564c-0.046-1.357-0.552-2.115-1.656-2.115
		C54.84,102.15,54.311,103,54.127,104.265z"/>
	<path fill="#AAAAAA" d="M73.101,111.439c-0.966,0.529-2.3,0.781-3.702,0.781c-3.519,0-6.646-2.092-6.646-6.369
		c0-4.254,3.196-6.529,6.806-6.529c1.518,0,2.645,0.252,3.519,0.643l-1.035,3.221c-0.437-0.23-1.265-0.484-2.23-0.484
		c-1.632,0-2.851,1.059-2.851,3.105c0,1.977,1.172,3.059,2.851,3.059c0.897,0,1.863-0.254,2.369-0.506L73.101,111.439z"/>
	<path fill="#AAAAAA" d="M75.218,107.783v-5.266h-1.311v-2.92h1.311V95.71h4.162v3.887h2.346v2.92H79.38v4.99
		c0,1.172,0.69,1.494,1.403,1.494c0.368,0,0.644-0.068,0.943-0.16v3.104c-0.414,0.092-0.759,0.207-1.886,0.207
		C77.012,112.152,75.218,110.796,75.218,107.783z"/>
	<path fill="#AAAAAA" d="M94.375,110.957c-0.621,0.736-1.449,1.311-2.805,1.311c-2.875,0-3.794-2.23-3.794-3.955
		c0-2.23,1.495-4.002,4.208-4.002c1.035,0,1.817,0.277,2.392,0.713v-0.551c0-1.633-1.104-2.023-2.415-2.023
		c-0.966,0-2.046,0.299-2.759,0.666l-0.828-2.943c1.265-0.621,2.621-0.965,4.53-0.965c4.139,0,5.634,1.953,5.634,5.059v7.727h-4.162
		V110.957z M94.375,109.185v-2.115c-0.391-0.252-0.828-0.414-1.311-0.414c-0.782,0-1.38,0.484-1.38,1.473s0.598,1.471,1.38,1.471
		C93.571,109.599,94.008,109.439,94.375,109.185z"/>
	<path fill="#AAAAAA" d="M13.06,139.039c-0.966,0.529-2.3,0.781-3.702,0.781c-3.519,0-6.646-2.092-6.646-6.369
		c0-4.254,3.196-6.529,6.806-6.529c1.518,0,2.645,0.252,3.519,0.643l-1.035,3.221c-0.437-0.23-1.265-0.484-2.23-0.484
		c-1.632,0-2.851,1.059-2.851,3.105c0,1.977,1.172,3.059,2.851,3.059c0.897,0,1.863-0.254,2.369-0.506L13.06,139.039z"/>
	<path fill="#AAAAAA" d="M20.467,139.935c-3.426,0-6.462-2.252-6.462-6.461s3.036-6.668,6.462-6.668
		c3.449,0,6.484,2.459,6.484,6.668S23.916,139.935,20.467,139.935z M20.467,136.693c1.172,0,2.276-0.805,2.276-3.266
		c0-2.438-1.104-3.379-2.276-3.379c-1.127,0-2.23,0.941-2.254,3.379C18.19,135.888,19.34,136.693,20.467,136.693z"/>
	<path fill="#AAAAAA" d="M35.991,138.21c-0.69,0.967-1.679,1.771-3.357,1.771c-2.736,0-4.07-1.908-4.07-4.461v-8.324h4.139v7.863
		c0,1.174,0.46,1.633,1.541,1.633c0.689,0,1.311-0.322,1.748-0.896v-8.6h4.162v12.395h-4.162V138.21z"/>
	<path fill="#AAAAAA" d="M42.547,139.591v-12.395h4.162v1.402c0.782-0.988,1.932-1.793,3.633-1.793c2.92,0,3.978,2,3.978,4.553
		v8.232h-4.162v-7.75c0-1.172-0.46-1.725-1.541-1.725c-0.828,0-1.449,0.438-1.909,1.195v8.279H42.547z"/>
	<path fill="#AAAAAA" d="M56.876,135.382v-5.266h-1.311v-2.92h1.311v-3.887h4.162v3.887h2.346v2.92h-2.346v4.99
		c0,1.172,0.69,1.494,1.403,1.494c0.368,0,0.644-0.068,0.943-0.16v3.104c-0.414,0.092-0.759,0.207-1.886,0.207
		C58.669,139.751,56.876,138.396,56.876,135.382z"/>
	<path fill="#AAAAAA" d="M68.536,138.417l-4.438-11.221h4.254l2.23,6.07l2.438-6.07h3.794l-6.737,16.764h-3.771L68.536,138.417z"/>
	<path fill="#AAAAAA" d="M83.395,130.117h-1.265v-2.92h1.265v-0.621c0-3.381,1.885-4.99,4.806-4.99c0.897,0,1.403,0.068,1.725,0.139
		v3.104c-0.345-0.068-0.644-0.092-0.92-0.092c-0.874,0-1.448,0.506-1.448,1.771v0.689h2.368v2.92h-2.368v9.475h-4.162V130.117z"/>
	<path fill="#AAAAAA" d="M97.17,139.935c-3.426,0-6.462-2.252-6.462-6.461s3.036-6.668,6.462-6.668c3.449,0,6.484,2.459,6.484,6.668
		S100.62,139.935,97.17,139.935z M97.17,136.693c1.172,0,2.276-0.805,2.276-3.266c0-2.438-1.104-3.379-2.276-3.379
		c-1.127,0-2.231,0.941-2.254,3.379C94.894,135.888,96.043,136.693,97.17,136.693z"/>
	<path fill="#AAAAAA" d="M105.382,139.591v-12.395h4.162v2.322c0.759-1.242,2.276-2.461,4.07-2.506v4.115
		c-1.058-0.115-3.265,0-4.07,1.012v7.451H105.382z"/>
	<path fill="#AAAAAA" d="M33.461,165.927c-0.735,0.85-1.931,1.562-3.403,1.562c-3.036,0-5.243-2.047-5.243-6.461
		c0-4.186,2.392-6.623,5.312-6.623c1.541,0,2.645,0.668,3.334,1.609v-6.736h4.162v17.912h-4.162V165.927z M33.461,163.375v-4.898
		c-0.552-0.574-1.265-0.805-2.069-0.805c-1.081,0-2.369,0.896-2.369,3.357s1.288,3.195,2.369,3.195
		C32.173,164.224,32.932,163.996,33.461,163.375z"/>
	<path fill="#AAAAAA" d="M46.341,167.421c-3.84,0-6.991-1.84-6.991-6.576c0-4.117,2.875-6.439,6.209-6.439
		c3.196,0,5.496,1.955,5.496,5.863v1.748h-7.427c0.299,1.473,1.288,2.162,3.311,2.162c1.196,0,2.185-0.346,3.15-0.736l0.621,2.967
		C49.791,166.984,48.135,167.421,46.341,167.421z M43.605,159.464h3.564c-0.046-1.355-0.552-2.115-1.656-2.115
		C44.317,157.349,43.789,158.201,43.605,159.464z"/>
	<path fill="#AAAAAA" d="M53.334,162.984v-5.266h-1.311v-2.922h1.311v-3.885h4.162v3.885h2.346v2.922h-2.346v4.988
		c0,1.174,0.69,1.496,1.403,1.496c0.368,0,0.644-0.07,0.943-0.162v3.105c-0.414,0.092-0.759,0.207-1.886,0.207
		C55.128,167.353,53.334,165.996,53.334,162.984z"/>
	<path fill="#AAAAAA" d="M67.731,166.156c-0.621,0.736-1.449,1.312-2.805,1.312c-2.875,0-3.794-2.23-3.794-3.955
		c0-2.232,1.495-4.002,4.208-4.002c1.035,0,1.817,0.275,2.392,0.713v-0.553c0-1.633-1.104-2.023-2.415-2.023
		c-0.966,0-2.046,0.299-2.759,0.668l-0.828-2.943c1.265-0.621,2.621-0.967,4.53-0.967c4.139,0,5.634,1.955,5.634,5.059v7.727h-4.162
		V166.156z M67.731,164.386v-2.115c-0.391-0.254-0.828-0.414-1.311-0.414c-0.782,0-1.38,0.482-1.38,1.471
		c0,0.99,0.598,1.473,1.38,1.473C66.926,164.8,67.363,164.638,67.731,164.386z"/>
	<path fill="#AAAAAA" d="M76.264,149.347c1.265,0,2.231,0.896,2.231,2.186c0,1.287-0.966,2.207-2.231,2.207
		c-1.242,0-2.23-0.92-2.23-2.207C74.034,150.244,75.022,149.347,76.264,149.347z M74.172,154.796h4.162v12.395h-4.162V154.796z"/>
	<path fill="#AAAAAA" d="M80.818,149.279h4.162v17.912h-4.162V149.279z"/>
	<path fill="#AAAAAA" d="M92.087,157.441c-0.851,0-1.518,0.186-1.518,0.805c0,0.898,2.046,0.783,3.771,1.633
		c1.265,0.621,1.932,1.609,1.932,3.334c0,2.807-2.093,4.277-5.197,4.277c-2.185,0-3.472-0.414-4.369-0.92l0.828-2.896
		c0.874,0.414,1.863,0.805,3.173,0.805c1.196,0,1.702-0.367,1.702-0.896c0-0.967-2.645-0.736-4.231-2
		c-0.782-0.621-1.242-1.588-1.242-2.922c0-2.76,1.978-4.115,4.921-4.115c1.932,0,3.311,0.391,4.116,0.781l-0.782,2.828
		C94.594,157.832,93.237,157.441,92.087,157.441z"/>
</g>
<g>
	<g>
		<path fill="none" stroke="#AAAAAA" stroke-miterlimit="10" d="M75.01,72.994c0,0,13.929-54.451,63.896-62.127"/>
		<g>
			<polygon fill="#AAAAAA" points="153.006,9.998 133.755,19.561 137.87,11.107 132.566,3.345 			"/>
		</g>
	</g>
</g>
</svg>
