<?xml version="1.0" encoding="utf-8"?>
<!-- Generator: Adobe Illustrator 16.0.4, SVG Export Plug-In . SVG Version: 6.00 Build 0)  -->
<!DOCTYPE svg PUBLIC "-//W3C//DTD SVG 1.1//EN" "http://www.w3.org/Graphics/SVG/1.1/DTD/svg11.dtd">
<svg version="1.1" id="Layer_1" xmlns="http://www.w3.org/2000/svg" xmlns:xlink="http://www.w3.org/1999/xlink" x="0px" y="0px"
	 width="91.495px" height="139.493px" viewBox="0 0 91.495 139.493" enable-background="new 0 0 91.495 139.493"
	 xml:space="preserve">
<g>
	<path fill="#AAAAAA" d="M18.301,87.254h10.256v3.335h-5.817v3.84h5.174v3.334h-5.174v6.715h-4.438V87.254z"/>
	<path fill="#AAAAAA" d="M32.997,86.634c1.266,0,2.23,0.896,2.23,2.185c0,1.287-0.965,2.207-2.23,2.207
		c-1.242,0-2.23-0.92-2.23-2.207C30.767,87.53,31.755,86.634,32.997,86.634z M30.905,92.083h4.162v12.395h-4.162V92.083z"/>
	<path fill="#AAAAAA" d="M37.552,86.564h4.162v17.913h-4.162V86.564z"/>
	<path fill="#AAAAAA" d="M44.704,100.27v-5.266h-1.311v-2.921h1.311v-3.886h4.162v3.886h2.346v2.921h-2.346v4.989
		c0,1.173,0.689,1.495,1.402,1.495c0.368,0,0.645-0.069,0.943-0.161v3.104c-0.414,0.092-0.76,0.207-1.886,0.207
		C46.497,104.639,44.704,103.282,44.704,100.27z"/>
	<path fill="#AAAAAA" d="M59.377,104.707c-3.841,0-6.991-1.839-6.991-6.576c0-4.116,2.875-6.438,6.209-6.438
		c3.197,0,5.496,1.954,5.496,5.863v1.748h-7.428c0.299,1.472,1.288,2.161,3.312,2.161c1.196,0,2.185-0.345,3.15-0.735l0.621,2.966
		C62.826,104.271,61.171,104.707,59.377,104.707z M56.641,96.751h3.563c-0.045-1.356-0.551-2.115-1.655-2.115
		C57.354,94.636,56.824,95.486,56.641,96.751z"/>
	<path fill="#AAAAAA" d="M65.841,104.478V92.083h4.162v2.322c0.759-1.241,2.276-2.46,4.07-2.506v4.116
		c-1.059-0.115-3.266,0-4.07,1.012v7.45H65.841z"/>
	<path fill="#AAAAAA" d="M3.052,127.869v-5.266H1.741v-2.921h1.311v-3.886h4.162v3.886H9.56v2.921H7.214v4.989
		c0,1.173,0.69,1.495,1.403,1.495c0.368,0,0.644-0.069,0.942-0.161v3.104c-0.414,0.092-0.759,0.207-1.885,0.207
		C4.846,132.238,3.052,130.882,3.052,127.869z"/>
	<path fill="#AAAAAA" d="M11.378,132.077v-17.913h4.162v6.922c0.782-0.989,1.932-1.794,3.634-1.794c2.921,0,3.978,2.001,3.978,4.553
		v8.232h-4.162v-7.749c0-1.173-0.459-1.725-1.54-1.725c-0.828,0-1.448,0.437-1.909,1.195v8.278H11.378z"/>
	<path fill="#AAAAAA" d="M31.755,132.307c-3.84,0-6.99-1.839-6.99-6.576c0-4.116,2.874-6.438,6.209-6.438
		c3.195,0,5.495,1.954,5.495,5.863v1.748h-7.427c0.299,1.472,1.287,2.161,3.311,2.161c1.195,0,2.185-0.345,3.15-0.735l0.621,2.966
		C35.204,131.87,33.548,132.307,31.755,132.307z M29.019,124.351h3.564c-0.047-1.356-0.553-2.115-1.656-2.115
		C29.731,122.235,29.202,123.086,29.019,124.351z"/>
	<path fill="#AAAAAA" d="M43.095,132.077v-12.395h4.162v1.403c0.689-0.989,1.701-1.794,3.403-1.794c1.587,0,2.736,0.644,3.312,2.115
		c0.735-1.127,1.862-2.115,3.748-2.115c2.76,0,3.979,2.023,3.979,4.576v8.209h-4.162v-7.727c0-1.173-0.461-1.747-1.495-1.747
		c-0.667,0-1.173,0.299-1.563,0.851v8.623h-4.162v-7.727c0-1.173-0.483-1.747-1.518-1.747c-0.645,0-1.15,0.275-1.541,0.759v8.715
		H43.095z"/>
	<path fill="#AAAAAA" d="M69.935,131.042c-0.621,0.736-1.449,1.312-2.806,1.312c-2.874,0-3.794-2.23-3.794-3.956
		c0-2.23,1.494-4.001,4.207-4.001c1.035,0,1.817,0.276,2.393,0.713v-0.552c0-1.633-1.104-2.023-2.415-2.023
		c-0.966,0-2.046,0.299-2.759,0.667l-0.828-2.943c1.265-0.621,2.621-0.966,4.529-0.966c4.14,0,5.635,1.954,5.635,5.059v7.727h-4.162
		V131.042z M69.935,129.271v-2.115c-0.391-0.253-0.828-0.414-1.311-0.414c-0.782,0-1.381,0.483-1.381,1.472
		c0,0.989,0.599,1.472,1.381,1.472C69.13,129.686,69.566,129.524,69.935,129.271z"/>
	<path fill="#AAAAAA" d="M80.537,130.767v5.68h-4.162v-16.764h4.162v1.173c0.735-0.851,1.932-1.563,3.403-1.563
		c3.035,0,5.242,2.047,5.242,6.462c0,4.185-2.391,6.622-5.312,6.622C82.331,132.376,81.228,131.709,80.537,130.767z M84.976,125.754
		c0-2.461-1.288-3.196-2.369-3.196c-0.781,0-1.541,0.229-2.069,0.851v4.897c0.552,0.575,1.265,0.805,2.069,0.805
		C83.688,129.11,84.976,128.214,84.976,125.754z"/>
</g>
<g>
	<g>
		<path fill="none" stroke="#AAAAAA" stroke-miterlimit="10" d="M43.607,77.755c0,0,13.734-38.247-12.223-65.137"/>
		<g>
			<polygon fill="#AAAAAA" points="20.461,3.662 40.905,10.301 32.05,13.461 30.407,22.717 			"/>
		</g>
	</g>
</g>
</svg>
