<?xml version="1.0" encoding="utf-8"?>
<!-- Generator: Adobe Illustrator 21.0.0, SVG Export Plug-In . SVG Version: 6.00 Build 0)  -->
<svg version="1.1" id="Layer_1" xmlns="http://www.w3.org/2000/svg" xmlns:xlink="http://www.w3.org/1999/xlink" x="0px" y="0px"
	 viewBox="0 0 140 140" style="enable-background:new 0 0 140 140;" xml:space="preserve">
<style type="text/css">
	.st0{fill:#AAAAAA;}
	.st1{fill:none;stroke:#AAAAAA;stroke-miterlimit:10;}
</style>
<g>
	<path class="st0" d="M42.6,87.5h10.3v3.3H47v3.8h5.2V98H47v6.7h-4.4L42.6,87.5L42.6,87.5z"/>
	<path class="st0" d="M57.2,86.9c1.3,0,2.2,0.9,2.2,2.2c0,1.3-1,2.2-2.2,2.2c-1.2,0-2.2-0.9-2.2-2.2C55,87.8,56,86.9,57.2,86.9z
		 M55.2,92.3h4.2v12.4h-4.2V92.3z"/>
	<path class="st0" d="M61.8,86.8H66v17.9h-4.2V86.8z"/>
	<path class="st0" d="M69,100.5v-5.3h-1.3v-2.9H69v-3.9h4.2v3.9h2.3v2.9h-2.3v5c0,1.2,0.7,1.5,1.4,1.5c0.4,0,0.6-0.1,0.9-0.2v3.1
		c-0.4,0.1-0.8,0.2-1.9,0.2C70.7,104.9,69,103.5,69,100.5z"/>
	<path class="st0" d="M83.6,105c-3.8,0-7-1.8-7-6.6c0-4.1,2.9-6.4,6.2-6.4c3.2,0,5.5,2,5.5,5.9v1.7h-7.4c0.3,1.5,1.3,2.2,3.3,2.2
		c1.2,0,2.2-0.3,3.2-0.7l0.6,3C87.1,104.5,85.4,105,83.6,105z M80.9,97h3.6c0-1.4-0.6-2.1-1.7-2.1C81.6,94.9,81.1,95.7,80.9,97z"/>
	<path class="st0" d="M90.1,104.7V92.3h4.2v2.3c0.8-1.2,2.3-2.5,4.1-2.5v4.1c-1.1-0.1-3.3,0-4.1,1v7.4L90.1,104.7L90.1,104.7z"/>
	<path class="st0" d="M27.3,128.1v-5.3H26v-2.9h1.3V116h4.2v3.9h2.3v2.9h-2.3v5c0,1.2,0.7,1.5,1.4,1.5c0.4,0,0.6-0.1,0.9-0.2v3.1
		c-0.4,0.1-0.8,0.2-1.9,0.2C29.1,132.5,27.3,131.1,27.3,128.1z"/>
	<path class="st0" d="M35.6,132.3v-17.9h4.2v6.9c0.8-1,1.9-1.8,3.6-1.8c2.9,0,4,2,4,4.6v8.2h-4.2v-7.7c0-1.2-0.5-1.7-1.5-1.7
		c-0.8,0-1.4,0.4-1.9,1.2v8.3L35.6,132.3L35.6,132.3z"/>
	<path class="st0" d="M56,132.6c-3.8,0-7-1.8-7-6.6c0-4.1,2.9-6.4,6.2-6.4c3.2,0,5.5,2,5.5,5.9v1.7h-7.4c0.3,1.5,1.3,2.2,3.3,2.2
		c1.2,0,2.2-0.3,3.2-0.7l0.6,3C59.5,132.1,57.8,132.6,56,132.6z M53.3,124.6h3.6c0-1.4-0.6-2.1-1.7-2.1
		C54,122.5,53.5,123.3,53.3,124.6z"/>
	<path class="st0" d="M67.3,132.3v-12.4h4.2v1.4c0.7-1,1.7-1.8,3.4-1.8c1.6,0,2.7,0.6,3.3,2.1c0.7-1.1,1.9-2.1,3.7-2.1
		c2.8,0,4,2,4,4.6v8.2h-4.2v-7.7c0-1.2-0.5-1.7-1.5-1.7c-0.7,0-1.2,0.3-1.6,0.9v8.6h-4.2v-7.7c0-1.2-0.5-1.7-1.5-1.7
		c-0.6,0-1.1,0.3-1.5,0.8v8.7L67.3,132.3L67.3,132.3z"/>
	<path class="st0" d="M94.2,131.3c-0.6,0.7-1.4,1.3-2.8,1.3c-2.9,0-3.8-2.2-3.8-4c0-2.2,1.5-4,4.2-4c1,0,1.8,0.3,2.4,0.7v-0.6
		c0-1.6-1.1-2-2.4-2c-1,0-2,0.3-2.8,0.7l-0.8-2.9c1.3-0.6,2.6-1,4.5-1c4.1,0,5.6,2,5.6,5.1v7.7h-4.2V131.3z M94.2,129.5v-2.1
		c-0.4-0.3-0.8-0.4-1.3-0.4c-0.8,0-1.4,0.5-1.4,1.5c0,1,0.6,1.5,1.4,1.5C93.4,129.9,93.8,129.8,94.2,129.5z"/>
	<path class="st0" d="M104.8,131v5.7h-4.2v-16.8h4.2v1.2c0.7-0.9,1.9-1.6,3.4-1.6c3,0,5.2,2,5.2,6.5c0,4.2-2.4,6.6-5.3,6.6
		C106.6,132.6,105.5,132,104.8,131z M109.2,126c0-2.5-1.3-3.2-2.4-3.2c-0.8,0-1.5,0.2-2.1,0.9v4.9c0.6,0.6,1.3,0.8,2.1,0.8
		C107.9,129.4,109.2,128.5,109.2,126z"/>
</g>
<g>
	<g>
		<path class="st1" d="M67.9,78c0,0,13.7-38.2-12.2-65.1"/>
		<g>
			<polygon class="st0" points="44.7,3.9 65.2,10.6 56.3,13.7 54.7,23 			"/>
		</g>
	</g>
</g>
</svg>
