<svg id="Layer_1" data-name="Layer 1" xmlns="http://www.w3.org/2000/svg" viewBox="0 0 180 169.49"><title>legend</title><path d="M77,5.83A46.53,46.53,0,1,1,30.42,52.37,46.59,46.59,0,0,1,77,5.83m0-1.5a48,48,0,1,0,48,48,48,48,0,0,0-48-48Z" fill="#aaa"/><path d="M142.93,71.71a13.6,13.6,0,1,1-13.6,13.6,13.61,13.61,0,0,1,13.6-13.6m0-1.5A15.1,15.1,0,1,0,158,85.31a15.1,15.1,0,0,0-15.09-15.1Z" fill="#aaa"/><path d="M42.9,138.86a8.94,8.94,0,0,1-4.85,1.2c-4.71,0-8.71-2.83-8.71-8.69s3.91-9.06,8.74-9.06a10.59,10.59,0,0,1,4.67.85l-1.08,3.49a6.63,6.63,0,0,0-3-.71c-2.94,0-4.83,1.93-4.83,5.38s2,5.11,4.58,5.11a6.68,6.68,0,0,0,3.33-.87Z" fill="#aaa"/><path d="M52,138.4a3.87,3.87,0,0,1-3.36,1.77c-2.74,0-4.07-1.91-4.07-4.46v-8.32h4.14v7.86c0,1.17.46,1.63,1.54,1.63A2.17,2.17,0,0,0,52,136v-8.6h4.16v12.39H52Z" fill="#aaa"/><path d="M58.52,139.78V127.39h4.16v1.4a3.89,3.89,0,0,1,3.4-1.79,3.22,3.22,0,0,1,3.31,2.12A4.26,4.26,0,0,1,73.14,127c2.76,0,4,2,4,4.58v8.21H73v-7.73c0-1.17-.46-1.75-1.49-1.75a1.83,1.83,0,0,0-1.56.85v8.62H65.74v-7.73c0-1.17-.48-1.75-1.52-1.75a1.9,1.9,0,0,0-1.54.76v8.71Z" fill="#aaa"/><path d="M86.71,138.4a3.87,3.87,0,0,1-3.36,1.77c-2.74,0-4.07-1.91-4.07-4.46v-8.32h4.14v7.86c0,1.17.46,1.63,1.54,1.63a2.17,2.17,0,0,0,1.75-.9v-8.6h4.16v12.39H86.71Z" fill="#aaa"/><path d="M93.36,121.87h4.16v17.91H93.36Z" fill="#aaa"/><path d="M105.94,138.75a3.43,3.43,0,0,1-2.81,1.31,3.66,3.66,0,0,1-3.79-4,4.25,4.25,0,0,1,6.6-3.29v-.55c0-1.63-1.1-2-2.41-2a6.52,6.52,0,0,0-2.76.67L99.94,128a9.72,9.72,0,0,1,4.53-1c4.14,0,5.63,2,5.63,5.06v7.73h-4.16Zm0-1.77v-2.12a2.4,2.4,0,0,0-1.31-.41,1.47,1.47,0,0,0,0,2.94A2.27,2.27,0,0,0,105.94,137Z" fill="#aaa"/><path d="M112.79,135.57v-5.27h-1.31v-2.92h1.31V123.5H117v3.89h2.35v2.92H117v5c0,1.17.69,1.49,1.4,1.49a3,3,0,0,0,.94-.16v3.1a6.59,6.59,0,0,1-1.89.21C114.59,139.94,112.79,138.59,112.79,135.57Z" fill="#aaa"/><path d="M123.21,121.94a2.2,2.2,0,1,1,0,4.39,2.2,2.2,0,1,1,0-4.39Zm-2.09,5.45h4.16v12.39h-4.16Z" fill="#aaa"/><path d="M126.57,127.39h4.23l2.39,6.6,2.39-6.6h3.73l-4.81,12.53h-3.15Z" fill="#aaa"/><path d="M146.37,140c-3.84,0-7-1.84-7-6.58a6,6,0,0,1,6.21-6.44c3.2,0,5.5,2,5.5,5.86v1.75h-7.43c.3,1.47,1.29,2.16,3.31,2.16a8.14,8.14,0,0,0,3.15-.73l.62,3A8.86,8.86,0,0,1,146.37,140Zm-2.74-8h3.56c0-1.36-.55-2.12-1.66-2.12S143.82,130.79,143.64,132.06Z" fill="#aaa"/><path d="M3.21,167.38V155H7.38v1.4A4.45,4.45,0,0,1,11,154.6c2.92,0,4,2,4,4.55v8.23H10.82v-7.75c0-1.17-.46-1.72-1.54-1.72a2.17,2.17,0,0,0-1.91,1.2v8.28Z" fill="#aaa"/><path d="M24.56,166a3.87,3.87,0,0,1-3.36,1.77c-2.74,0-4.07-1.91-4.07-4.46V155h4.14v7.86c0,1.17.46,1.63,1.54,1.63a2.17,2.17,0,0,0,1.75-.9V155h4.16v12.39H24.56Z" fill="#aaa"/><path d="M31.11,167.38V155h4.16v1.4a3.89,3.89,0,0,1,3.4-1.79A3.22,3.22,0,0,1,42,156.71a4.26,4.26,0,0,1,3.75-2.12c2.76,0,4,2,4,4.58v8.21H45.55v-7.73c0-1.17-.46-1.75-1.49-1.75a1.83,1.83,0,0,0-1.56.85v8.62H38.33v-7.73c0-1.17-.48-1.75-1.52-1.75a1.9,1.9,0,0,0-1.54.76v8.71Z" fill="#aaa"/><path d="M56.16,166.07v1.31H52V149.47h4.16v6.69a4.52,4.52,0,0,1,3.4-1.56c3,0,5.24,2,5.24,6.46,0,4.19-2.39,6.62-5.31,6.62A4,4,0,0,1,56.16,166.07Zm4.44-5c0-2.46-1.29-3.2-2.37-3.2a2.61,2.61,0,0,0-2.07.85v4.9a2.74,2.74,0,0,0,2.07.8C59.31,164.42,60.6,163.52,60.6,161.06Z" fill="#aaa"/><path d="M72.88,167.61c-3.84,0-7-1.84-7-6.58a6,6,0,0,1,6.21-6.44c3.2,0,5.5,2,5.5,5.86v1.75H70.16c.3,1.47,1.29,2.16,3.31,2.16a8.14,8.14,0,0,0,3.15-.73l.62,3A8.86,8.86,0,0,1,72.88,167.61Zm-2.74-8h3.56c0-1.36-.55-2.12-1.66-2.12S70.33,158.39,70.14,159.66Z" fill="#aaa"/><path d="M79.34,167.38V155H83.5v2.32a5.16,5.16,0,0,1,4.07-2.51v4.12c-1.06-.12-3.27,0-4.07,1v7.45Z" fill="#aaa"/><path d="M99.9,167.73a6.16,6.16,0,0,1-6.46-6.46,6.48,6.48,0,1,1,12.95,0A6.17,6.17,0,0,1,99.9,167.73Zm0-3.24c1.17,0,2.28-.8,2.28-3.27s-1.1-3.38-2.28-3.38-2.23.94-2.25,3.38S98.78,164.48,99.9,164.48Z" fill="#aaa"/><path d="M108.41,157.91h-1.27V155h1.27v-.62c0-3.38,1.89-5,4.81-5a8.09,8.09,0,0,1,1.72.14v3.1a4.65,4.65,0,0,0-.92-.09c-.87,0-1.45.51-1.45,1.77V155h2.37v2.92h-2.37v9.47h-4.16Z" fill="#aaa"/><path d="M131.14,166.83a7.93,7.93,0,0,1-3.7.78c-3.52,0-6.65-2.09-6.65-6.37s3.2-6.53,6.81-6.53a8.51,8.51,0,0,1,3.52.64l-1,3.22a5.09,5.09,0,0,0-2.23-.48,3.09,3.09,0,0,0,0,6.16,6,6,0,0,0,2.37-.51Z" fill="#aaa"/><path d="M138.79,166.35a3.43,3.43,0,0,1-2.81,1.31,3.66,3.66,0,0,1-3.79-4,4.25,4.25,0,0,1,6.6-3.29v-.55c0-1.63-1.1-2-2.41-2a6.52,6.52,0,0,0-2.76.67l-.83-2.94a9.72,9.72,0,0,1,4.53-1c4.14,0,5.63,2,5.63,5.06v7.73h-4.16Zm0-1.77v-2.12a2.4,2.4,0,0,0-1.31-.41,1.47,1.47,0,0,0,0,2.94A2.27,2.27,0,0,0,138.79,164.58Z" fill="#aaa"/><path d="M149.88,157.63c-.85,0-1.52.18-1.52.8,0,.9,2,.78,3.77,1.63a3.3,3.3,0,0,1,1.93,3.33c0,2.8-2.09,4.28-5.2,4.28a8.56,8.56,0,0,1-4.37-.92l.83-2.9a7.08,7.08,0,0,0,3.17.8c1.2,0,1.7-.37,1.7-.9,0-1-2.64-.73-4.23-2a3.53,3.53,0,0,1-1.24-2.92c0-2.76,2-4.12,4.92-4.12a9.63,9.63,0,0,1,4.12.78l-.78,2.83A7.72,7.72,0,0,0,149.88,157.63Z" fill="#aaa"/><path d="M162.21,167.61c-3.84,0-7-1.84-7-6.58a6,6,0,0,1,6.21-6.44c3.2,0,5.5,2,5.5,5.86v1.75h-7.43c.3,1.47,1.29,2.16,3.31,2.16a8.14,8.14,0,0,0,3.15-.73l.62,3A8.86,8.86,0,0,1,162.21,167.61Zm-2.74-8H163c0-1.36-.55-2.12-1.66-2.12S159.65,158.39,159.47,159.66Z" fill="#aaa"/><path d="M173.32,157.63c-.85,0-1.52.18-1.52.8,0,.9,2,.78,3.77,1.63a3.3,3.3,0,0,1,1.93,3.33c0,2.8-2.09,4.28-5.2,4.28a8.56,8.56,0,0,1-4.37-.92l.83-2.9a7.08,7.08,0,0,0,3.17.8c1.2,0,1.7-.37,1.7-.9,0-1-2.64-.73-4.23-2a3.53,3.53,0,0,1-1.24-2.92c0-2.76,2-4.12,4.92-4.12a9.63,9.63,0,0,1,4.12.78l-.78,2.83A7.72,7.72,0,0,0,173.32,157.63Z" fill="#aaa"/></svg>