<svg id="Layer_1" data-name="Layer 1" xmlns="http://www.w3.org/2000/svg" viewBox="0 0 165 165"><title>legend_select</title><path d="M28.14,95.14c-1.1,0-2,.35-2,1.33s1.91,1.47,3.61,2.21c1.89.83,3.82,2.16,3.82,5,0,3.59-2.44,5.66-6.39,5.66a8.75,8.75,0,0,1-5.47-1.49l1.17-3.5a6.94,6.94,0,0,0,4.26,1.39c1.66,0,2.42-.53,2.42-1.43,0-1.43-1.52-1.7-3.33-2.48s-4-2-4-4.94c0-3.22,2.14-5.31,6-5.31a9.28,9.28,0,0,1,4.91,1.19l-1.06,3.4A8,8,0,0,0,28.14,95.14Z" fill="#aaa"/><path d="M42,109.3c-3.84,0-7-1.84-7-6.58a6,6,0,0,1,6.21-6.44c3.2,0,5.5,2,5.5,5.86v1.75H39.27c.3,1.47,1.29,2.16,3.31,2.16a8.14,8.14,0,0,0,3.15-.73l.62,3A8.85,8.85,0,0,1,42,109.3Zm-2.74-8H42.8c0-1.36-.55-2.11-1.66-2.11s-1.71.89-1.9,2.16Z" fill="#aaa"/><path d="M48.54,91.16H52.7v17.92H48.54Z" fill="#aaa"/><path d="M61.51,109.3c-3.84,0-7-1.84-7-6.58a6,6,0,0,1,6.21-6.44c3.2,0,5.5,2,5.5,5.86v1.75H58.79c.3,1.47,1.29,2.16,3.31,2.16a8.14,8.14,0,0,0,3.15-.73l.62,3A8.85,8.85,0,0,1,61.51,109.3Zm-2.74-8h3.56c0-1.36-.55-2.11-1.66-2.11s-1.72.89-1.9,2.16Z" fill="#aaa"/><path d="M77.74,108.52a7.94,7.94,0,0,1-3.7.78c-3.52,0-6.65-2.09-6.65-6.37s3.2-6.53,6.81-6.53a8.5,8.5,0,0,1,3.52.64l-1,3.22a5.1,5.1,0,0,0-2.23-.48,3.09,3.09,0,0,0,0,6.16,6,6,0,0,0,2.37-.51Z" fill="#aaa"/><path d="M79.86,104.87V99.58H78.55v-2.9h1.31V92.79H84v3.89h2.35v2.9H84v5c0,1.17.69,1.49,1.4,1.49a3,3,0,0,0,.94-.16V109a6.59,6.59,0,0,1-1.89.21C81.65,109.24,79.86,107.88,79.86,104.87Z" fill="#aaa"/><path d="M99,108a3.43,3.43,0,0,1-2.81,1.31,3.65,3.65,0,0,1-3.79-4,4.25,4.25,0,0,1,6.6-3.29v-.48c0-1.63-1.1-2-2.42-2a6.52,6.52,0,0,0-2.76.67L93,97.31a9.72,9.72,0,0,1,4.53-1c4.14,0,5.63,2,5.63,5.06v7.73H99V108Zm0-1.77v-2.11a2.4,2.4,0,0,0-1.31-.41,1.48,1.48,0,0,0,0,2.94A2.27,2.27,0,0,0,99,106.27Z" fill="#aaa"/><path d="M17.7,136.12a7.94,7.94,0,0,1-3.7.78c-3.52,0-6.65-2.09-6.65-6.37s3.2-6.53,6.81-6.53a8.5,8.5,0,0,1,3.52.64l-1,3.22a5.1,5.1,0,0,0-2.23-.48,3.09,3.09,0,0,0,0,6.16,6,6,0,0,0,2.37-.51Z" fill="#aaa"/><path d="M25.14,137a6.16,6.16,0,0,1-6.49-6.44,6.33,6.33,0,0,1,6-6.68h.53a6.34,6.34,0,0,1,6.46,6.22q0,.24,0,.47A6.17,6.17,0,0,1,25.7,137Zm0-3.24c1.17,0,2.28-.8,2.28-3.27s-1.1-3.38-2.28-3.38-2.23.94-2.25,3.38S24,133.78,25.14,133.78Z" fill="#aaa"/><path d="M40.63,135.29a3.87,3.87,0,0,1-3.36,1.77c-2.74,0-4.07-1.91-4.07-4.46v-8.32h4.14v7.86c0,1.17.46,1.63,1.54,1.63a2.17,2.17,0,0,0,1.75-.9v-8.6h4.16v12.41H40.64V135.3Z" fill="#aaa"/><path d="M47.19,136.68v-12.4h4.16v1.4A4.46,4.46,0,0,1,55,123.89c2.92,0,4,2,4,4.55v8.23H54.8v-7.75c0-1.17-.46-1.73-1.54-1.73a2.18,2.18,0,0,0-1.91,1.2v8.28H47.19Z" fill="#aaa"/><path d="M61.52,132.47V127.2H60.21v-2.92h1.31v-3.89h4.16v3.89H68v2.92H65.68v5c0,1.17.69,1.49,1.4,1.49a3,3,0,0,0,.94-.16v3.05a6.59,6.59,0,0,1-1.89.21C63.31,136.84,61.52,135.48,61.52,132.47Z" fill="#aaa"/><path d="M73.14,135.5l-4.4-11.22H73l2.23,6.07,2.44-6.07h3.79L74.71,141H70.95Z" fill="#aaa"/><path d="M88,127.2H86.77v-2.92H88v-.62c0-3.38,1.89-5,4.81-5a8,8,0,0,1,1.72.14v3.1a4.68,4.68,0,0,0-.92-.09c-.87,0-1.45.51-1.45,1.77v.69h2.37v2.92H92.2v9.48H88v-9.48Z" fill="#aaa"/><path d="M101.81,137a6.16,6.16,0,0,1-6.46-5.85q0-.3,0-.59a6.48,6.48,0,1,1,12.95-.51q0,.25,0,.51a6.17,6.17,0,0,1-5.89,6.44Zm0-3.24c1.17,0,2.28-.8,2.28-3.27s-1.1-3.38-2.28-3.38-2.23.94-2.25,3.38S100.69,133.78,101.81,133.78Z" fill="#aaa"/><path d="M110,136.68v-12.4h4.11v2.3a5.16,5.16,0,0,1,4.07-2.51v4.12c-1.06-.12-3.26,0-4.07,1v7.45H110Z" fill="#aaa"/><path d="M38.14,163a4.51,4.51,0,0,1-3.4,1.56c-3,0-5.24-2-5.24-6.46,0-4.19,2.39-6.62,5.31-6.62a4,4,0,0,1,3.33,1.61v-6.74H42.3v17.91H38.14Zm0-2.55v-4.88a2.74,2.74,0,0,0-2.07-.8c-1.08,0-2.37.9-2.37,3.36s1.29,3.2,2.37,3.2a2.61,2.61,0,0,0,2.07-.88Z" fill="#aaa"/><path d="M51,164.51c-3.84,0-7-1.84-7-6.58a6,6,0,0,1,6.21-6.44c3.2,0,5.5,2,5.5,5.86v1.75H48.27c.3,1.47,1.29,2.16,3.31,2.16a8.14,8.14,0,0,0,3.15-.74l.62,3A8.88,8.88,0,0,1,51,164.51Zm-2.74-8H51.8c0-1.35-.55-2.12-1.66-2.12s-1.71.9-1.89,2.19Z" fill="#aaa"/><path d="M58,160.07V154.8H56.67v-2.92H58V148h4.16v3.88h2.35v2.92H62.14v5c0,1.17.69,1.5,1.4,1.5a3,3,0,0,0,.94-.16v3.1a6.59,6.59,0,0,1-1.89.21C59.77,164.44,58,163.08,58,160.07Z" fill="#aaa"/><path d="M72.38,163.24a3.43,3.43,0,0,1-2.81,1.34,3.65,3.65,0,0,1-3.79-4,4.25,4.25,0,0,1,6.6-3.29v-.55c0-1.63-1.1-2-2.42-2a6.49,6.49,0,0,0-2.76.67l-.83-2.94a9.72,9.72,0,0,1,4.53-1c4.14,0,5.63,2,5.63,5.06v7.73H72.38v-1Zm0-1.77v-2.12a2.38,2.38,0,0,0-1.31-.41,1.48,1.48,0,0,0,0,2.94A2.29,2.29,0,0,0,72.38,161.47Z" fill="#aaa"/><path d="M80.9,146.43a2.2,2.2,0,1,1,.3,4.39h-.3a2.2,2.2,0,1,1-.3-4.39Zm-2.09,5.45H83v12.4H78.82Z" fill="#aaa"/><path d="M85.46,146.36h4.16v17.92H85.46Z" fill="#aaa"/><path d="M96.72,154.52c-.85,0-1.52.19-1.52.8,0,.9,2,.78,3.77,1.63a3.3,3.3,0,0,1,1.93,3.33c0,2.81-2.09,4.28-5.2,4.28a8.56,8.56,0,0,1-4.37-.92l.83-2.9a7.08,7.08,0,0,0,3.17.8c1.2,0,1.7-.37,1.7-.9,0-1-2.64-.74-4.23-2a3.53,3.53,0,0,1-1.24-2.92c0-2.76,2-4.12,4.92-4.12a9.64,9.64,0,0,1,4.12.78l-.78,2.83A7.7,7.7,0,0,0,96.72,154.52Z" fill="#aaa"/><path d="M79.65,70.08S93.58,15.58,143.55,8" fill="none" stroke="#aaa" stroke-miterlimit="10"/><polygon points="157.65 7.08 138.4 16.65 142.51 8.19 137.21 0.43 157.65 7.08" fill="#aaa"/></svg>