<svg id="Layer_1" data-name="Layer 1" xmlns="http://www.w3.org/2000/svg" viewBox="0 0 165.8 27.53"><title>mh-logo</title><path d="M153.42,24c-.72.71-1.68,1.79-2.52,2.79-1.23-.94-2.43-1.78-3.14-2.31V6a1.51,1.51,0,0,0-.86-1.52v-.1l4.28-3.14.07.07V23a4.91,4.91,0,0,0,2.14.93Z" fill="#fff"/><path d="M133.49,10.58a3.65,3.65,0,0,1-3.21,2.48,3.58,3.58,0,0,1-2.93-1.38L127,12V22.55c1.59.91,2.2,1.24,2.69,1.24s.73-.21,1.21-.69l.24.24c-1.23,1.21-2.37,2.41-3.35,3.48-1.42-1-2.82-2-4.27-3V12.76a5.25,5.25,0,0,0-2-1.28l0-.07,2.34-2.62c1.16,1,2,1.7,3.24,2.59,1-.91,1.74-1.61,2.65-2.55a5.11,5.11,0,0,0,3.66,1.66Z" fill="#fff"/><path d="M96.81.79c-.91,2.08-2,3.31-3.55,3.31-.71,0-2.15-.72-3.17-.72A2.72,2.72,0,0,0,87.43,4.9l-.14-.14c.29-2.87,2-4.21,4-4.21,1.24,0,2.47.76,3.55.76a2.93,2.93,0,0,0,1.9-.66Z" fill="#fff"/><path d="M110.87,1a4.57,4.57,0,0,1-2.31,3V22.89a6.29,6.29,0,0,1,2.28,1l-2.76,2.93a5.11,5.11,0,0,0-3.48-1.34,6.72,6.72,0,0,0-3.9,1.21l0-.14a5,5,0,0,1,4-4V14.27H98.29v9a1.3,1.3,0,0,0,.59.17c.35,0,.81-.46,1.14-.93l.28.24c-.83,1-2.3,2.68-3.34,4.1a8,8,0,0,0-5-1.48,8.46,8.46,0,0,0-4.45,1.14l-.07-.17a6.21,6.21,0,0,1,6.28-4.17,9.8,9.8,0,0,1,4.14.93V.17h.45V11h6.41V4.14A5.36,5.36,0,0,1,102,2.79C102.9,2,103.91.88,104.7,0a5.29,5.29,0,0,0,3.55,1.35A6.63,6.63,0,0,0,110.8.86Z" fill="#fff"/><path d="M96.63,4.1c-.36.66-.52,1.59-.52,3.72v8a5.86,5.86,0,0,1-4.45,5.45l-.17-.1a2.67,2.67,0,0,0,.79-2v-4.9h-.9c-1.38,0-1.89.69-2,1.45h-.1a2.44,2.44,0,0,1-.83-2,2.76,2.76,0,0,1,3-2.69h.83V9.27c0-3,1.81-4.51,4.24-5.24Z" fill="#fff"/><path d="M162.32,23.65V11.52L160,9.27c-.78.5-1.35.78-1.93,1.14V21.79a35.71,35.71,0,0,0,3.62,2.34Zm3.48-1.72a32,32,0,0,0-6.55,4.9c-1.45-1.11-3.24-2.32-4.66-3.28V11.86c1.53-.83,3.22-1.75,5.17-2.9l-4-4a5.18,5.18,0,0,0-1.9-1.38l0-.07c1.2-.86,2.2-1.64,3-2.34,1.53,1.58,5,5.09,8.93,9.14Z" fill="#fff"/><path d="M140.59,23.34V17.62a6.64,6.64,0,0,0-2-.28c-1.73,0-2.31,1.34-2.31,3.14a4.74,4.74,0,0,0,2,4.24Zm0-6.24V13.48c-1.32-1-2.22-1.59-3.76-2.62l-.21.14v6.1a8.48,8.48,0,0,1,1.83-.28,7.89,7.89,0,0,1,2.14.28m5.31,7.14-2.17,2.55c-1.16-.9-2.06-1.58-3.55-2.69-1.51.87-2.3,1.44-4.34,2.72a5.77,5.77,0,0,1-3-5.21c0-1.95,1.23-3.59,3.65-4.48A13.68,13.68,0,0,0,134,15.65V11.9a39.61,39.61,0,0,0,5.28-3.07c1.6,1.07,2.81,1.84,4.79,3.17V23.27a3.75,3.75,0,0,0,1.79.9Z" fill="#fff"/><path d="M118.53,15.65c-.9-1.48-2-3.38-2.72-4.69l-.28.17v6.38Zm3.14-1.45L115.53,18v4.45c1.62,1,2.21,1.38,2.73,1.38s.83-.42,1.65-1.24l.28.28c-1.31,1.25-2.62,2.53-3.9,4-1.34-1-2.9-2.08-4.24-3v-11c1.79-1.07,4.71-3,6.17-4.07,1,1.6,2.09,3.33,3.45,5.38" fill="#fff"/><path d="M81.81,4.43c-.57.59-1.15,1.25-1.93,2.17-.65-.57-1.52-1.18-2.41-1.86.63-.67,1.29-1.36,2-2.24.76.66,1.56,1.33,2.34,1.93" fill="#fff"/><path d="M83.84,24.25s-.91,1-2.41,2.83c-.95-.75-2.17-1.65-3.14-2.31V12.57a3.45,3.45,0,0,0-1.41-.83l0-.07,2.31-2.59c.9.7,1.68,1.27,2.62,1.93V23.29a5.88,5.88,0,0,0,2,.9Z" fill="#fff"/><path d="M76.77,24.22s-.68.73-2.41,2.86c-1-.82-2-1.54-3.14-2.31V13.15l-2.76-1.69L67.05,12.6V24.15l1,.62c-.63.6-1.84,1.74-2.41,2.31-.87-.69-2.07-1.62-2.07-1.62V13l-2.45-1.69L59.4,12.74V24.15c.32.21.68.44,1,.59-.81.77-1.66,1.58-2.38,2.34-.73-.59-1.54-1.24-2.07-1.62V13c-1.14-1-1.52-1.22-2.1-1.27l0-.07c.82-.82,1.73-1.76,2.45-2.62,1.09.86,2.28,1.83,3.55,2.79,1-.79,2.16-1.68,3.52-2.76,1.11.8,2.62,1.86,3.86,2.76,1.18-.93,2.27-1.82,3.41-2.83,1,.7,3.22,2,4.14,2.62V23.29a4.92,4.92,0,0,0,2,.86Z" fill="#fff"/><path d="M38.47,4.43c-.57.59-1.15,1.25-1.93,2.17C35.89,6,35,5.42,34.13,4.74c.63-.67,1.29-1.36,2-2.24.75.66,1.56,1.33,2.34,1.93" fill="#fff"/><path d="M40.51,24.25s-.9,1-2.41,2.83c-.95-.75-2.17-1.65-3.14-2.31V12.57a3.44,3.44,0,0,0-1.41-.83l0-.07,2.31-2.59c.9.7,1.68,1.27,2.62,1.93V23.29a5.89,5.89,0,0,0,2,.9Z" fill="#fff"/><path d="M11.17,1C10.26,3,9.09,4.26,7.58,4.26c-.71,0-2.15-.72-3.17-.72A2.72,2.72,0,0,0,1.76,5.05l-.17-.1c.29-2.87,2-4.24,4-4.24,1.24,0,2.47.76,3.55.76A3.07,3.07,0,0,0,11,.85Z" fill="#fff"/><path d="M48.75,23.6V17.88a6.63,6.63,0,0,0-2-.28c-1.73,0-2.31,1.34-2.31,3.14a4.74,4.74,0,0,0,2,4.24Zm0-6.24V13.74c-1.32-1-2.26-1.59-3.79-2.62l-.17.14v6.1a8.49,8.49,0,0,1,1.83-.28,7.92,7.92,0,0,1,2.14.28m5.31,7.14L51.88,27c-1.16-.9-2.06-1.58-3.55-2.69-1.5.87-2.3,1.44-4.34,2.72a5.77,5.77,0,0,1-3-5.21c0-1.95,1.23-3.59,3.65-4.48a13.73,13.73,0,0,0-2.45-1.48V12.15a39.79,39.79,0,0,0,5.27-3.07c1.6,1.07,2.81,1.84,4.79,3.17V23.53a3.76,3.76,0,0,0,1.79.9Z" fill="#fff"/><path d="M27,22.77V14.53H22.61v8.72a5.08,5.08,0,0,0,2.28.93,1.92,1.92,0,0,0,1-.55s.68-.56,1.07-.86M16.72,11.29V4.64l-3-2.17-1.52.9v7.93Zm5.45,11.82V3.33l-1.59.93V22.63a9.4,9.4,0,0,1,1.59.48M27,11.29V4.71A5.86,5.86,0,0,1,23.61,2.5l-1,.62v8.17ZM33.51,24s-1.94,1.82-3.17,3c-1.11-1-2.7-2.24-4-3.27-1,.76-3.52,2.59-4.38,3.31a8.23,8.23,0,0,0-5-1.55,5.83,5.83,0,0,0-3.45,1.1l-.07-.17a6.8,6.8,0,0,1,3.31-3.65V14.53H12.2v8.86c0,2.34-1.51,3.76-4,3.76-1.72,0-3.33-.86-5-.86a3.35,3.35,0,0,0-3,1.24L0,27.46c.14-2.67,1.56-4.31,4.17-4.31,1.69,0,3.53.83,5.34.83,1.6,0,2.24-.54,2.24-2.17V3.6c-.79.44-1.11.66-1.66,1V17.46c0,2.77-2.38,4.15-5.1,4.41l0-.07a3.53,3.53,0,0,0,1.27-3V14.53H5.65a1.8,1.8,0,0,0-2,1.48l-.1,0a2.44,2.44,0,0,1-.86-2,2.79,2.79,0,0,1,3.07-2.69h.52V9.36c0-2.45,1.55-3.93,3.76-5.21l7-4c1.35,1,3.07,2.23,4.48,3.17L26.82.23a4.53,4.53,0,0,0,3.69,1.9,6.47,6.47,0,0,0,2.21-.34l.07.1a4,4,0,0,1-2,2.93V22.7A6.28,6.28,0,0,0,33.47,24Z" fill="#fff"/></svg>