<?xml version="1.0" encoding="utf-8"?>
<!-- Generator: Adobe Illustrator 21.0.0, SVG Export Plug-In . SVG Version: 6.00 Build 0)  -->
<svg version="1.1" id="Layer_1" xmlns="http://www.w3.org/2000/svg" xmlns:xlink="http://www.w3.org/1999/xlink" x="0px" y="0px"
	 viewBox="0 0 723 723" style="enable-background:new 0 0 723 723;" xml:space="preserve">
<style type="text/css">
	.st0{opacity:0.85;fill:#FFFFFF;enable-background:new    ;}
	.st1{opacity:0.85;fill:#F25F5C;enable-background:new    ;}
	.st2{enable-background:new    ;}
	.st3{fill:#FFFFFF;}
</style>
<path class="st0" d="M361.5,6C166.3,6,8,164.3,8,359.5S166.3,713,361.5,713S715,554.7,715,359.5S556.7,6,361.5,6z M361.5,697
	C175.1,697,24,545.9,24,359.5S175.1,22,361.5,22S699,173.1,699,359.5S547.9,697,361.5,697z"/>
<circle class="st1" cx="361.5" cy="359.5" r="337.5"/>
<g>
	<g class="st2">
		<path class="st3" d="M138.6,485.5h-20.3V470h61.2v15.4h-20.3v64.3h-20.6V485.5z"/>
		<path class="st3" d="M189.8,470h32.8c14.4,0,26.2,8.3,26.2,25c0,11.2-6.6,18.4-14.7,22.1l18.4,32.7h-21.9l-16.9-30h-3.2v30h-20.6
			V470z M210.5,485.4v21.4h8.2c6.2,0,10.1-4,10.1-11.1c0-6.9-4-10.3-10.1-10.3H210.5z"/>
		<path class="st3" d="M283.9,469.5h14.8l29.3,80.3h-20.7l-4-11.7h-26.8l-4,11.7h-17.9L283.9,469.5z M289.9,498.8l-8.5,25.1h17.1
			L289.9,498.8z"/>
		<path class="st3" d="M392.2,545.6c-5.8,3.8-14,5.5-22.5,5.5c-21.9,0-40.5-13.1-40.5-40.3c0-27.3,18.2-42,40.6-42
			c10,0,16.9,1.6,21.7,3.9l-5,16.2c-3.5-2-9.3-3.3-13.8-3.3c-13.7,0-22.4,8.9-22.4,24.9c0,16.1,9.3,23.7,21.3,23.7
			c6.4,0,11.9-1.9,15.5-4L392.2,545.6z"/>
		<path class="st3" d="M402.9,549.8V470h20.6v34.7l22.9-34.7H467l-25.1,37.7l27.6,42.1h-23.1L423.5,514v35.8H402.9z"/>
		<path class="st3" d="M478.3,470h48.8v15.4h-28.2v15.7h25.5v15.4h-25.5v17.8h28.6v15.4h-49.2V470z"/>
		<path class="st3" d="M542.6,470h32.8c14.4,0,26.2,8.3,26.2,25c0,11.2-6.6,18.4-14.7,22.1l18.4,32.7h-21.9l-16.9-30h-3.2v30h-20.6
			V470z M563.2,485.4v21.4h8.2c6.2,0,10.1-4,10.1-11.1c0-6.9-4-10.3-10.1-10.3H563.2z"/>
	</g>
	<g class="st2">
		<path class="st3" d="M124.6,179.5h16.8c12.5,0,24,8.3,24,24.6c0,16.3-11.5,24.1-24,24.1h-16.8V179.5z M137.2,189v29.8h3.4
			c7,0,11.9-4.7,11.9-14.8c0-10-5-15-11.9-15H137.2z"/>
		<path class="st3" d="M184,179.2h9.1l17.9,49h-12.7l-2.4-7.2h-16.4l-2.4,7.2h-11L184,179.2z M187.6,197.1l-5.2,15.3h10.4
			L187.6,197.1z"/>
		<path class="st3" d="M216.1,179.5h12.6v48.7h-12.6V179.5z"/>
		<path class="st3" d="M238.7,179.5h12.6v39.3H269v9.4h-30.3V179.5z"/>
		<path class="st3" d="M281.8,208.7l-14.5-29.1h13.1l8.5,17.6l8.4-17.6h11l-13.9,28.3v20.4h-12.6V208.7z"/>
		<path class="st3" d="M327.3,179.5h29.1v9.4h-16.5v10.9h14.7v9.4h-14.7v19h-12.6V179.5z"/>
		<path class="st3" d="M364.6,179.5h12.6v39.3H395v9.4h-30.3V179.5z"/>
		<path class="st3" d="M423.4,229.3c-12.2,0-24-8.7-24-25.2c0-16.3,11.8-25.7,24-25.7c12.3,0,24.1,9.4,24.1,25.7
			C447.5,220.5,435.7,229.3,423.4,229.3z M423.4,219.1c6.4,0,11.2-4.9,11.2-15c0-10.1-4.8-15.3-11.2-15.3c-6.3,0-11.2,5.1-11.2,15.3
			C412.3,214.3,417.1,219.1,423.4,219.1z"/>
		<path class="st3" d="M455.2,179.5h20c8.8,0,16,5.1,16,15.3c0,6.8-4,11.2-9,13.5l11.2,20h-13.4l-10.3-18.3h-2v18.3h-12.6V179.5z
			 M467.8,188.9V202h5c3.8,0,6.2-2.5,6.2-6.8c0-4.2-2.4-6.3-6.2-6.3H467.8z"/>
		<path class="st3" d="M498.8,179.5h12.6v48.7h-12.6V179.5z"/>
		<path class="st3" d="M521.3,179.5h16.8c12.5,0,24,8.3,24,24.6c0,16.3-11.5,24.1-24,24.1h-16.8V179.5z M533.9,189v29.8h3.4
			c7,0,11.9-4.7,11.9-14.8c0-10-5-15-11.9-15H533.9z"/>
		<path class="st3" d="M580.7,179.2h9.1l17.9,49H595l-2.4-7.2h-16.4l-2.4,7.2h-11L580.7,179.2z M584.3,197.1l-5.2,15.3h10.4
			L584.3,197.1z"/>
	</g>
	<g class="st2">
		<path class="st3" d="M77.8,418.5l74-125H81.6v-35.8h124.6v23.7l-74.8,125.5h75.5v35.8h-129V418.5z"/>
		<path class="st3" d="M237.1,257.7h47.8v185.1h-47.8V257.7z"/>
		<path class="st3" d="M322.5,442.8V257.7h47.8v80.6l53-80.6h47.8l-58.2,87.5l63.9,97.6h-53.5l-53-83v83H322.5z"/>
		<path class="st3" d="M550.1,256.4h34.4l67.9,186.3h-48l-9.2-27.2H533l-9.2,27.2h-41.6L550.1,256.4z M563.9,324.4l-19.8,58.3h39.6
			L563.9,324.4z"/>
	</g>
</g>
</svg>
